<svg width="200" height="200" viewBox="0 0 200 200" fill="none" xmlns="http://www.w3.org/2000/svg">
<path d="M60.53 72.4V88.78C60.53 95.08 60.98 99.73 61.88 102.73C61.1 103.03 59.87 103.18 58.19 103.18C56.51 103.18 55.37 102.88 54.77 102.28C54.23 101.68 53.96 100.66 53.96 99.22C53.96 97.6 53.96 93.1 53.96 85.72C54.02 78.28 54.05 71.65 54.05 65.83C50.09 74.05 45.5 86.41 40.28 102.91C39.56 103.09 38.6 103.18 37.4 103.18C35.54 103.06 34.34 102.46 33.8 101.38C32.48 98.68 30.29 93.19 27.23 84.91C24.17 76.63 21.56 70.27 19.4 65.83V88.78C19.4 95.08 19.88 99.73 20.84 102.73C19.64 103.03 18.56 103.18 17.6 103.18C16.04 103.18 14.99 102.88 14.45 102.28C13.91 101.68 13.64 100.66 13.64 99.22C13.64 98.5 13.64 96.67 13.64 93.73C13.7 90.79 13.73 88.48 13.73 86.8V69.16C13.73 63.88 13.28 59.74 12.38 56.74C14.18 56.38 15.74 56.2 17.06 56.2C19.52 56.2 21.44 57.34 22.82 59.62C24.74 62.62 26.63 66.37 28.49 70.87C30.41 75.31 31.91 79.12 32.99 82.3C34.07 85.42 35.51 89.8 37.31 95.44C40.97 80.86 45.74 68.89 51.62 59.53C52.94 57.31 54.86 56.2 57.38 56.2C58.82 56.2 60.32 56.38 61.88 56.74C60.98 59.56 60.53 64.78 60.53 72.4ZM75.1784 103.32C74.3143 103.32 73.5301 103.157 72.8258 102.831C72.1215 102.5 71.5622 102.023 71.1479 101.402C70.7336 100.775 70.5265 100.017 70.5265 99.1293C70.5265 98.348 70.6803 97.7147 70.9881 97.2294C71.2959 96.7382 71.7072 96.3535 72.2221 96.0753C72.737 95.7971 73.3052 95.59 73.9267 95.4538C74.554 95.3118 75.1844 95.1993 75.8176 95.1165C76.6462 95.0099 77.318 94.93 77.8329 94.8768C78.3538 94.8176 78.7325 94.7199 78.9693 94.5838C79.2119 94.4477 79.3333 94.2109 79.3333 93.8736V93.8026C79.3333 92.9266 79.0936 92.246 78.6142 91.7607C78.1407 91.2753 77.4216 91.0327 76.4569 91.0327C75.4566 91.0327 74.6724 91.2517 74.1042 91.6896C73.536 92.1276 73.1365 92.5952 72.9057 93.0923L70.9171 92.3821C71.2722 91.5535 71.7457 90.9084 72.3375 90.4467C72.9353 89.9792 73.5864 89.6536 74.2907 89.4702C75.0009 89.2808 75.6993 89.1861 76.3858 89.1861C76.8238 89.1861 77.3269 89.2393 77.8951 89.3459C78.4692 89.4465 79.0225 89.6566 79.5552 89.9762C80.0938 90.2958 80.5407 90.7782 80.8958 91.4233C81.2509 92.0684 81.4284 92.9325 81.4284 94.0156V103H79.3333V101.153H79.2267C79.0847 101.449 78.848 101.766 78.5165 102.103C78.1851 102.441 77.7441 102.728 77.1937 102.964C76.6433 103.201 75.9715 103.32 75.1784 103.32ZM75.498 101.438C76.3266 101.438 77.025 101.275 77.5932 100.949C78.1673 100.624 78.5994 100.203 78.8894 99.6886C79.1853 99.1737 79.3333 98.6321 79.3333 98.0639V96.1463C79.2445 96.2528 79.0492 96.3505 78.7473 96.4393C78.4514 96.5221 78.1081 96.5961 77.7175 96.6612C77.3328 96.7204 76.957 96.7737 76.59 96.821C76.229 96.8625 75.936 96.898 75.7111 96.9276C75.1666 96.9986 74.6576 97.114 74.1841 97.2738C73.7166 97.4277 73.3378 97.6615 73.0478 97.9751C72.7637 98.2829 72.6216 98.7031 72.6216 99.2358C72.6216 99.9638 72.8909 100.514 73.4295 100.887C73.974 101.254 74.6635 101.438 75.498 101.438ZM87.3477 84.8182V103H85.2526V84.8182H87.3477ZM95.198 103.32C94.3339 103.32 93.5497 103.157 92.8453 102.831C92.141 102.5 91.5817 102.023 91.1674 101.402C90.7531 100.775 90.546 100.017 90.546 99.1293C90.546 98.348 90.6999 97.7147 91.0076 97.2294C91.3154 96.7382 91.7267 96.3535 92.2417 96.0753C92.7566 95.7971 93.3248 95.59 93.9462 95.4538C94.5736 95.3118 95.2039 95.1993 95.8372 95.1165C96.6658 95.0099 97.3375 94.93 97.8525 94.8768C98.3733 94.8176 98.7521 94.7199 98.9888 94.5838C99.2315 94.4477 99.3528 94.2109 99.3528 93.8736V93.8026C99.3528 92.9266 99.1131 92.246 98.6337 91.7607C98.1602 91.2753 97.4411 91.0327 96.4764 91.0327C95.4761 91.0327 94.6919 91.2517 94.1238 91.6896C93.5556 92.1276 93.1561 92.5952 92.9252 93.0923L90.9366 92.3821C91.2917 91.5535 91.7652 90.9084 92.3571 90.4467C92.9548 89.9792 93.6059 89.6536 94.3102 89.4702C95.0204 89.2808 95.7188 89.1861 96.4054 89.1861C96.8433 89.1861 97.3464 89.2393 97.9146 89.3459C98.4887 89.4465 99.0421 89.6566 99.5748 89.9762C100.113 90.2958 100.56 90.7782 100.915 91.4233C101.27 92.0684 101.448 92.9325 101.448 94.0156V103H99.3528V101.153H99.2463C99.1042 101.449 98.8675 101.766 98.536 102.103C98.2046 102.441 97.7637 102.728 97.2132 102.964C96.6628 103.201 95.9911 103.32 95.198 103.32ZM95.5176 101.438C96.3462 101.438 97.0446 101.275 97.6127 100.949C98.1868 100.624 98.6189 100.203 98.9089 99.6886C99.2048 99.1737 99.3528 98.6321 99.3528 98.0639V96.1463C99.264 96.2528 99.0687 96.3505 98.7669 96.4393C98.4709 96.5221 98.1277 96.5961 97.737 96.6612C97.3523 96.7204 96.9765 96.7737 96.6096 96.821C96.2485 96.8625 95.9556 96.898 95.7306 96.9276C95.1861 96.9986 94.6771 97.114 94.2037 97.2738C93.7361 97.4277 93.3573 97.6615 93.0673 97.9751C92.7832 98.2829 92.6412 98.7031 92.6412 99.2358C92.6412 99.9638 92.9105 100.514 93.449 100.887C93.9935 101.254 94.6831 101.438 95.5176 101.438ZM105.272 103V89.3636H107.367V103H105.272ZM106.337 87.0909C105.929 87.0909 105.577 86.9518 105.281 86.6737C104.991 86.3955 104.846 86.0611 104.846 85.6705C104.846 85.2798 104.991 84.9454 105.281 84.6673C105.577 84.3891 105.929 84.25 106.337 84.25C106.746 84.25 107.095 84.3891 107.385 84.6673C107.681 84.9454 107.829 85.2798 107.829 85.6705C107.829 86.0611 107.681 86.3955 107.385 86.6737C107.095 86.9518 106.746 87.0909 106.337 87.0909ZM115.218 103.32C114.353 103.32 113.569 103.157 112.865 102.831C112.161 102.5 111.601 102.023 111.187 101.402C110.773 100.775 110.566 100.017 110.566 99.1293C110.566 98.348 110.719 97.7147 111.027 97.2294C111.335 96.7382 111.746 96.3535 112.261 96.0753C112.776 95.7971 113.344 95.59 113.966 95.4538C114.593 95.3118 115.223 95.1993 115.857 95.1165C116.685 95.0099 117.357 94.93 117.872 94.8768C118.393 94.8176 118.772 94.7199 119.008 94.5838C119.251 94.4477 119.372 94.2109 119.372 93.8736V93.8026C119.372 92.9266 119.133 92.246 118.653 91.7607C118.18 91.2753 117.461 91.0327 116.496 91.0327C115.496 91.0327 114.711 91.2517 114.143 91.6896C113.575 92.1276 113.176 92.5952 112.945 93.0923L110.956 92.3821C111.311 91.5535 111.785 90.9084 112.377 90.4467C112.974 89.9792 113.625 89.6536 114.33 89.4702C115.04 89.2808 115.738 89.1861 116.425 89.1861C116.863 89.1861 117.366 89.2393 117.934 89.3459C118.508 89.4465 119.062 89.6566 119.594 89.9762C120.133 90.2958 120.58 90.7782 120.935 91.4233C121.29 92.0684 121.468 92.9325 121.468 94.0156V103H119.372V101.153H119.266C119.124 101.449 118.887 101.766 118.556 102.103C118.224 102.441 117.783 102.728 117.233 102.964C116.682 103.201 116.011 103.32 115.218 103.32ZM115.537 101.438C116.366 101.438 117.064 101.275 117.632 100.949C118.206 100.624 118.638 100.203 118.928 99.6886C119.224 99.1737 119.372 98.6321 119.372 98.0639V96.1463C119.284 96.2528 119.088 96.3505 118.786 96.4393C118.49 96.5221 118.147 96.5961 117.757 96.6612C117.372 96.7204 116.996 96.7737 116.629 96.821C116.268 96.8625 115.975 96.898 115.75 96.9276C115.206 96.9986 114.697 97.114 114.223 97.2738C113.756 97.4277 113.377 97.6615 113.087 97.9751C112.803 98.2829 112.661 98.7031 112.661 99.2358C112.661 99.9638 112.93 100.514 113.469 100.887C114.013 101.254 114.703 101.438 115.537 101.438ZM125.292 103V89.3636H127.316V91.4943H127.493C127.777 90.7663 128.236 90.2011 128.869 89.7987C129.503 89.3903 130.263 89.1861 131.151 89.1861C132.051 89.1861 132.799 89.3903 133.397 89.7987C134.001 90.2011 134.471 90.7663 134.809 91.4943H134.951C135.3 90.79 135.824 90.2307 136.522 89.8164C137.22 89.3962 138.058 89.1861 139.035 89.1861C140.254 89.1861 141.251 89.5678 142.026 90.3313C142.802 91.0889 143.189 92.2696 143.189 93.8736V103H141.094V93.8736C141.094 92.8674 140.819 92.1483 140.269 91.7163C139.718 91.2842 139.07 91.0682 138.324 91.0682C137.366 91.0682 136.623 91.3582 136.096 91.9382C135.569 92.5123 135.306 93.2403 135.306 94.1222V103H133.175V93.6605C133.175 92.8852 132.924 92.2608 132.421 91.7873C131.917 91.3079 131.269 91.0682 130.476 91.0682C129.932 91.0682 129.423 91.2132 128.949 91.5032C128.482 91.7932 128.103 92.1957 127.813 92.7106C127.529 93.2196 127.387 93.8085 127.387 94.4773V103H125.292ZM147.02 103V89.3636H149.044V91.4943H149.222C149.506 90.7663 149.965 90.2011 150.598 89.7987C151.231 89.3903 151.992 89.1861 152.88 89.1861C153.779 89.1861 154.528 89.3903 155.126 89.7987C155.729 90.2011 156.2 90.7663 156.537 91.4943H156.679C157.028 90.79 157.552 90.2307 158.251 89.8164C158.949 89.3962 159.786 89.1861 160.763 89.1861C161.982 89.1861 162.98 89.5678 163.755 90.3313C164.53 91.0889 164.918 92.2696 164.918 93.8736V103H162.823V93.8736C162.823 92.8674 162.547 92.1483 161.997 91.7163C161.447 91.2842 160.799 91.0682 160.053 91.0682C159.094 91.0682 158.351 91.3582 157.824 91.9382C157.298 92.5123 157.034 93.2403 157.034 94.1222V103H154.904V93.6605C154.904 92.8852 154.652 92.2608 154.149 91.7873C153.646 91.3079 152.998 91.0682 152.205 91.0682C151.66 91.0682 151.151 91.2132 150.678 91.5032C150.21 91.7932 149.831 92.1957 149.541 92.7106C149.257 93.2196 149.115 93.8085 149.115 94.4773V103H147.02ZM172.761 103.32C171.897 103.32 171.113 103.157 170.409 102.831C169.705 102.5 169.145 102.023 168.731 101.402C168.317 100.775 168.109 100.017 168.109 99.1293C168.109 98.348 168.263 97.7147 168.571 97.2294C168.879 96.7382 169.29 96.3535 169.805 96.0753C170.32 95.7971 170.888 95.59 171.51 95.4538C172.137 95.3118 172.767 95.1993 173.401 95.1165C174.229 95.0099 174.901 94.93 175.416 94.8768C175.937 94.8176 176.316 94.7199 176.552 94.5838C176.795 94.4477 176.916 94.2109 176.916 93.8736V93.8026C176.916 92.9266 176.677 92.246 176.197 91.7607C175.724 91.2753 175.005 91.0327 174.04 91.0327C173.04 91.0327 172.255 91.2517 171.687 91.6896C171.119 92.1276 170.72 92.5952 170.489 93.0923L168.5 92.3821C168.855 91.5535 169.329 90.9084 169.921 90.4467C170.518 89.9792 171.169 89.6536 171.874 89.4702C172.584 89.2808 173.282 89.1861 173.969 89.1861C174.407 89.1861 174.91 89.2393 175.478 89.3459C176.052 89.4465 176.606 89.6566 177.138 89.9762C177.677 90.2958 178.124 90.7782 178.479 91.4233C178.834 92.0684 179.011 92.9325 179.011 94.0156V103H176.916V101.153H176.81C176.668 101.449 176.431 101.766 176.1 102.103C175.768 102.441 175.327 102.728 174.777 102.964C174.226 103.201 173.555 103.32 172.761 103.32ZM173.081 101.438C173.91 101.438 174.608 101.275 175.176 100.949C175.75 100.624 176.182 100.203 176.472 99.6886C176.768 99.1737 176.916 98.6321 176.916 98.0639V96.1463C176.828 96.2528 176.632 96.3505 176.33 96.4393C176.034 96.5221 175.691 96.5961 175.301 96.6612C174.916 96.7204 174.54 96.7737 174.173 96.821C173.812 96.8625 173.519 96.898 173.294 96.9276C172.75 96.9986 172.241 97.114 171.767 97.2738C171.3 97.4277 170.921 97.6615 170.631 97.9751C170.347 98.2829 170.205 98.7031 170.205 99.2358C170.205 99.9638 170.474 100.514 171.013 100.887C171.557 101.254 172.247 101.438 173.081 101.438ZM184.931 94.7969V103H182.836V89.3636H184.86V91.4943H185.037C185.357 90.8018 185.842 90.2455 186.493 89.8253C187.144 89.3991 187.985 89.1861 189.015 89.1861C189.938 89.1861 190.746 89.3755 191.438 89.7543C192.131 90.1271 192.669 90.6953 193.054 91.4588C193.439 92.2164 193.631 93.1752 193.631 94.3352V103H191.536V94.4773C191.536 93.406 191.258 92.5715 190.701 91.9737C190.145 91.37 189.382 91.0682 188.411 91.0682C187.742 91.0682 187.144 91.2132 186.618 91.5032C186.097 91.7932 185.685 92.2164 185.384 92.7727C185.082 93.3291 184.931 94.0038 184.931 94.7969Z" fill="black"/>
<path d="M78.5923 111.545V113.037H72.6562V111.545H78.5923ZM74.3864 108.801H76.1463V119.719C76.1463 120.216 76.2184 120.589 76.3626 120.837C76.5117 121.081 76.7006 121.245 76.9293 121.33C77.163 121.409 77.4091 121.449 77.6676 121.449C77.8615 121.449 78.0206 121.439 78.1449 121.419C78.2692 121.394 78.3686 121.374 78.4432 121.359L78.8011 122.94C78.6818 122.985 78.5153 123.03 78.3015 123.075C78.0877 123.124 77.8168 123.149 77.4886 123.149C76.9915 123.149 76.5043 123.042 76.027 122.828C75.5547 122.615 75.1619 122.289 74.8487 121.852C74.5405 121.414 74.3864 120.862 74.3864 120.196V108.801ZM81.2397 123V111.545H82.94V113.276H83.0593C83.2681 112.709 83.646 112.249 84.1928 111.896C84.7397 111.543 85.3562 111.366 86.0423 111.366C86.1715 111.366 86.3331 111.369 86.527 111.374C86.7209 111.379 86.8675 111.386 86.967 111.396V113.186C86.9073 113.171 86.7706 113.149 86.5568 113.119C86.348 113.084 86.1268 113.067 85.8931 113.067C85.3363 113.067 84.8391 113.184 84.4016 113.417C83.9691 113.646 83.6261 113.964 83.3725 114.372C83.1239 114.775 82.9996 115.234 82.9996 115.751V123H81.2397ZM92.4239 123.268C91.6981 123.268 91.0393 123.132 90.4477 122.858C89.8561 122.58 89.3863 122.18 89.0383 121.658C88.6903 121.131 88.5162 120.494 88.5162 119.749C88.5162 119.092 88.6455 118.56 88.904 118.153C89.1626 117.74 89.5081 117.417 89.9406 117.183C90.3731 116.95 90.8504 116.776 91.3724 116.661C91.8994 116.542 92.4289 116.447 92.9608 116.378C93.6569 116.288 94.2211 116.221 94.6537 116.176C95.0912 116.127 95.4094 116.045 95.6082 115.93C95.8121 115.816 95.914 115.617 95.914 115.334V115.274C95.914 114.538 95.7126 113.967 95.3099 113.559C94.9122 113.151 94.3082 112.947 93.4978 112.947C92.6576 112.947 91.9988 113.131 91.5216 113.499C91.0443 113.867 90.7087 114.26 90.5148 114.678L88.8444 114.081C89.1427 113.385 89.5404 112.843 90.0376 112.455C90.5397 112.062 91.0866 111.789 91.6782 111.635C92.2748 111.476 92.8614 111.396 93.4381 111.396C93.806 111.396 94.2286 111.441 94.7059 111.531C95.1881 111.615 95.653 111.792 96.1004 112.06C96.5528 112.328 96.9282 112.734 97.2265 113.276C97.5248 113.817 97.6739 114.543 97.6739 115.453V123H95.914V121.449H95.8245C95.7052 121.697 95.5063 121.963 95.2279 122.247C94.9495 122.53 94.5791 122.771 94.1167 122.97C93.6544 123.169 93.0901 123.268 92.4239 123.268ZM92.6924 121.688C93.3884 121.688 93.9751 121.551 94.4523 121.277C94.9346 121.004 95.2975 120.651 95.5411 120.218C95.7897 119.786 95.914 119.331 95.914 118.854V117.243C95.8394 117.332 95.6753 117.414 95.4218 117.489C95.1732 117.559 94.8849 117.621 94.5567 117.675C94.2336 117.725 93.9179 117.77 93.6096 117.81C93.3064 117.844 93.0603 117.874 92.8714 117.899C92.414 117.959 91.9864 118.056 91.5887 118.19C91.1959 118.319 90.8778 118.516 90.6341 118.779C90.3955 119.038 90.2762 119.391 90.2762 119.838C90.2762 120.45 90.5024 120.912 90.9548 121.225C91.4122 121.533 91.9914 121.688 92.6924 121.688ZM109.843 111.545L105.607 123H103.817L99.5811 111.545H101.49L104.652 120.673H104.771L107.933 111.545H109.843ZM116.558 123.239C115.454 123.239 114.502 122.995 113.702 122.508C112.906 122.016 112.292 121.33 111.86 120.45C111.432 119.565 111.218 118.536 111.218 117.362C111.218 116.189 111.432 115.155 111.86 114.26C112.292 113.36 112.894 112.659 113.664 112.157C114.44 111.65 115.345 111.396 116.379 111.396C116.975 111.396 117.565 111.496 118.146 111.695C118.728 111.893 119.257 112.217 119.735 112.664C120.212 113.107 120.592 113.693 120.876 114.424C121.159 115.155 121.301 116.055 121.301 117.124V117.869H112.471V116.348H119.511C119.511 115.702 119.382 115.125 119.123 114.618C118.87 114.111 118.507 113.711 118.034 113.417C117.567 113.124 117.015 112.977 116.379 112.977C115.678 112.977 115.071 113.151 114.559 113.499C114.052 113.842 113.662 114.29 113.388 114.842C113.115 115.393 112.978 115.985 112.978 116.616V117.631C112.978 118.496 113.127 119.229 113.426 119.831C113.729 120.427 114.149 120.882 114.686 121.195C115.223 121.504 115.847 121.658 116.558 121.658C117.02 121.658 117.438 121.593 117.811 121.464C118.189 121.33 118.514 121.131 118.788 120.867C119.061 120.599 119.272 120.266 119.422 119.868L121.122 120.345C120.943 120.922 120.642 121.429 120.219 121.866C119.797 122.299 119.275 122.637 118.653 122.881C118.032 123.119 117.333 123.239 116.558 123.239ZM125.738 107.727V123H123.978V107.727H125.738ZM137.075 114.111L135.494 114.558C135.395 114.295 135.248 114.039 135.054 113.79C134.865 113.537 134.607 113.328 134.278 113.164C133.95 113 133.53 112.918 133.018 112.918C132.317 112.918 131.733 113.079 131.266 113.402C130.803 113.721 130.572 114.126 130.572 114.618C130.572 115.055 130.731 115.401 131.049 115.654C131.368 115.908 131.865 116.119 132.541 116.288L134.241 116.706C135.265 116.955 136.028 117.335 136.531 117.847C137.033 118.354 137.284 119.008 137.284 119.808C137.284 120.464 137.095 121.051 136.717 121.568C136.344 122.085 135.822 122.493 135.151 122.791C134.48 123.089 133.699 123.239 132.809 123.239C131.641 123.239 130.674 122.985 129.908 122.478C129.143 121.971 128.658 121.23 128.454 120.256L130.125 119.838C130.284 120.455 130.585 120.917 131.027 121.225C131.475 121.533 132.059 121.688 132.78 121.688C133.6 121.688 134.251 121.513 134.733 121.165C135.221 120.812 135.464 120.39 135.464 119.898C135.464 119.5 135.325 119.167 135.047 118.898C134.768 118.625 134.341 118.421 133.764 118.287L131.855 117.839C130.806 117.591 130.035 117.206 129.543 116.684C129.056 116.157 128.812 115.498 128.812 114.707C128.812 114.061 128.994 113.489 129.357 112.992C129.725 112.495 130.224 112.105 130.856 111.821C131.492 111.538 132.213 111.396 133.018 111.396C134.152 111.396 135.042 111.645 135.688 112.142C136.339 112.639 136.802 113.295 137.075 114.111Z" fill="#9C9C9C"/>
</svg>
